<svg width="21" height="31" viewBox="0 0 21 31" fill="none" xmlns="http://www.w3.org/2000/svg">
<path d="M4.73687 29.7675L19.7012 17.316C20.0044 17.0638 20.2483 16.7479 20.4157 16.3909C20.5831 16.0338 20.6699 15.6443 20.6699 15.25C20.6699 14.8556 20.5831 14.4661 20.4157 14.109C20.2483 13.752 20.0044 13.4362 19.7012 13.1839L4.73687 0.732426C4.34444 0.406097 3.8672 0.198261 3.36097 0.133232C2.85474 0.0682039 2.34046 0.148671 1.87829 0.36522C1.41612 0.581769 1.02517 0.925445 0.751169 1.35605C0.477168 1.78665 0.331448 2.28637 0.331055 2.79676V27.7032C0.331448 28.2136 0.477168 28.7133 0.751169 29.1439C1.02517 29.5745 1.41612 29.9182 1.87829 30.1347C2.34046 30.3513 2.85474 30.4317 3.36097 30.3667C3.8672 30.3017 4.34444 30.0938 4.73687 29.7675Z" fill="white"/>
</svg>
